# xmcd
#
# Track frame offsets: 
#        150
#        12717
#        25440
#        34775
#        45422
#        55617
#        67317
#        76407
#        87030
#        97602
#        109685
#        119207
#        128487
#        139730
#        150047
#        160730
#        172192
#        183170
#
# Disc length: 2565 seconds
#
# Revision: 3
# Processed by: cddbd v1.5.2PL0 Copyright (c) Steve Scherf et al.
# Submitted via: ExactAudioCopy v1.0b3
#
DISCID=e00a0312
DTITLE=Paul Mauriat - My First Recording
DYEAR=1995
DGENRE=Classical
TTITLE0=Io Che Non Vivo
TTITLE1=La Boheme
TTITLE2=Vous Les Femmes
TTITLE3=La Nuit
TTITLE4=It's Not Unusual
TTITLE5=The Little Drummer Boy
TTITLE6=Le Rossignol Anglais
TTITLE7=Il Silenzio
TTITLE8=Aux Jenes Loups
TTITLE9=Capri C'est Fini
TTITLE10=Attends Ou Va T'en
TTITLE11=N'avoue Jamais
TTITLE12=Une Petite Cantate
TTITLE13=Mes Mains Sur Tes Hanches
TTITLE14=Le Ciel Le Soleil Et La Mer
TTITLE15=Love In Every Room
TTITLE16=Comme Toujours
TTITLE17=Mon Amie La Rose
EXTD=
EXTT0=
EXTT1=
EXTT2=
EXTT3=
EXTT4=
EXTT5=
EXTT6=
EXTT7=
EXTT8=
EXTT9=
EXTT10=
EXTT11=
EXTT12=
EXTT13=
EXTT14=
EXTT15=
EXTT16=
EXTT17=
PLAYORDER=
